inDegrees=yes
name=ik_S53_A08_T02
DataType=double
version=3
OpenSimVersion=4.3-2021-08-27-4bc7ad9
endheader
time	pelvis_tilt	pelvis_list	pelvis_rotation	pelvis_tx	pelvis_ty	pelvis_tz	hip_flexion_r	hip_adduction_r	hip_rotation_r	knee_angle_r	knee_angle_r_beta	ankle_angle_r	subtalar_angle_r	mtp_angle_r	hip_flexion_l	hip_adduction_l	hip_rotation_l	knee_angle_l	knee_angle_l_beta	ankle_angle_l	subtalar_angle_l	mtp_angle_l	lumbar_extension	lumbar_bending	lumbar_rotation	arm_flex_r	arm_add_r	arm_rot_r	elbow_flex_r	pro_sup_r	wrist_flex_r	wrist_dev_r	arm_flex_l	arm_add_l	arm_rot_l	elbow_flex_l	pro_sup_l	wrist_flex_l	wrist_dev_l
7.819999999999921	-4.543044296605743	-0.447488480063194	16.76101719035845	0	0.9399999999999999	0	44.30401502613754	-10.38566514778447	-10.67379026424444	55.20423291277736	0.9634956253657845	0	0	0	44.30401502613754	-10.38566514778447	-10.67379026424444	55.20423291277736	0.9634956253657845	0	0	0	-3.138572883980187	-2.052217982258779	2.318595449608125	15.47186039061757	-1.2088853292477	1.353728727209677	46.53421661691623	129.2007471645706	0	0	46.24064565169871	-8.893883606991729	7.656501778002457	48.7747441988113	98.42281140192088	0	0
7.839999999999921	-4.558496500666928	-0.4440955371890784	16.61624472434718	0	0.9399999999999999	0	44.30424347786072	-10.38523083798442	-10.67330052759406	55.20418730977353	0.963494829443219	0	0	0	44.30424347786072	-10.38523083798442	-10.67330052759406	55.20418730977353	0.963494829443219	0	0	0	-3.152684026608464	-2.041246405375287	2.287839851761305	15.49268969535768	-1.186676074301507	1.517490140420029	46.58650361108116	129.0806981175576	0	0	46.24730721460988	-8.997528462382965	7.529253726340089	47.86536092560499	98.61473228242677	0	0
7.85999999999992	-4.592307966569731	-0.4406680093740301	16.54177502290568	0	0.9399999999999999	0	44.30656298008575	-10.38114162002337	-10.66852871645031	55.2037250049607	0.9634867607020872	0	0	0	44.30656298008575	-10.38114162002337	-10.66852871645031	55.2037250049607	0.9634867607020872	0	0	0	-3.187569222302205	-2.019607916481964	2.2555500723834	15.52368595738614	-1.223623883521634	1.631759647128863	46.69482214241695	128.9856116954007	0	0	46.28968612788169	-9.040603436723918	7.44164902553189	47.88159512963209	98.60708402606942	0	0
7.87999999999992	-4.629195219400082	-0.4323851861815809	16.32619394381987	0	0.9399999999999999	0	44.30677051848589	-10.38074533629862	-10.66808199105519	55.20368400498534	0.963486045117524	0	0	0	44.30677051848589	-10.38074533629862	-10.66808199105519	55.20368400498534	0.963486045117524	0	0	0	-3.220388146632761	-2.004709766166819	2.330951525990168	15.55396915246976	-1.247572172958328	1.850897047665412	46.76955897588483	128.9143905220738	0	0	47.07904123076281	-8.661042655363424	7.929805765989065	46.27518858520872	98.47076113843309	0	0
7.89999999999992	-4.633947293435923	-0.4306575758730773	16.1982084467103	0	0.9399999999999999	0	44.30701809213036	-10.38027115304465	-10.66754793976326	55.2036352663437	0.9634851944677545	0	0	0	44.30701809213036	-10.38027115304465	-10.66754793976326	55.2036352663437	0.9634851944677545	0	0	0	-3.224171313904678	-2.006130125675738	2.418027621403382	15.51742332434188	-1.277284271771433	1.93678825411588	46.86619888117371	128.8176626759378	0	0	47.68553394868714	-8.307497881235605	8.536110723970554	45.27481547426799	98.16429376222129	0	0
7.919999999999919	-4.652744425735014	-0.4248624775331642	16.0812045757817	0	0.9399999999999999	0	44.30726572899748	-10.37979787272798	-10.66701443981684	55.20358645029177	0.9634843424669204	0	0	0	44.30726572899748	-10.37979787272798	-10.66701443981684	55.20358645029177	0.9634843424669204	0	0	0	-3.240850370944997	-1.995475131240079	2.432867197910158	15.53827450484563	-1.308260175504593	2.115318306289295	46.92200817096678	128.7104465602773	0	0	47.97351061368016	-8.187319573948546	8.778008817430321	44.63233827012198	97.9227944274577	0	0
7.939999999999919	-4.670679753437106	-0.4220228666333455	15.98402956271402	0	0.9399999999999999	0	44.30754540079219	-10.37926281153432	-10.66641141416927	55.20353141634853	0.9634833819434104	0	0	0	44.30754540079219	-10.37926281153432	-10.66641141416927	55.20353141634853	0.9634833819434104	0	0	0	-3.257460170394184	-1.988726726602404	2.462065107728375	15.55038269139386	-1.336408840248379	2.252037606220702	46.9669674389495	128.6445916840151	0	0	48.23669334427773	-8.029149636552081	9.1028615423951	44.05714640557497	97.6592544813598	0	0
7.959999999999918	-4.67016810337603	-0.4218509975925668	15.92554005220778	0	0.9399999999999999	0	44.307825716271	-10.37872766566841	-10.66580775693097	55.20347618937972	0.9634824180509689	0	0	0	44.307825716271	-10.37872766566841	-10.66580775693097	55.20347618937972	0.9634824180509689	0	0	0	-3.256863895787056	-1.991260425661515	2.518163911605288	15.52998906345385	-1.36272027581911	2.319478169008245	46.99548181448914	128.5775289185876	0	0	48.44088060987797	-7.860900293904833	9.473541360539995	43.5497534314549	97.45362753500687	0	0
7.979999999999918	-4.689537706076373	-0.4205009686270842	15.85263286691841	0	0.9399999999999999	0	44.30816537018072	-10.37807879095576	-10.66507584320322	55.20340937725546	0.9634812519594202	0	0	0	44.30816537018072	-10.37807879095576	-10.66507584320322	55.20340937725546	0.9634812519594202	0	0	0	-3.275267025854141	-1.985942086635148	2.5542846581122	15.57422664671823	-1.388287659517016	2.433617347293298	47.01238732773118	128.5242375992947	0	0	48.67597671249518	-7.697964021586837	9.764274288201605	43.07369048510233	97.32963149408295	0	0
7.999999999999917	-4.713871110946929	-0.424923332234183	15.79418200347197	0	0.9399999999999999	0	44.30847424642486	-10.37749099565936	-10.66441183376465	55.20334845286781	0.963480188628261	0	0	0	44.30847424642486	-10.37749099565936	-10.66441183376465	55.20334845286781	0.963480188628261	0	0	0	-3.29995555819547	-1.985175801673525	2.595864578281061	15.60508484580423	-1.403409949680529	2.518232562283076	47.02483456964111	128.4915573418443	0	0	48.93523853096903	-7.543808929974587	9.993921949163324	42.65784950322095	97.30952421618119	0	0
8.019999999999918	-4.728553650976729	-0.4266610606009132	15.76142738404403	0	0.9399999999999999	0	44.30868787612397	-10.37708879241544	-10.66395577938191	55.20330591309526	0.9634794461691669	0	0	0	44.30868787612397	-10.37708879241544	-10.66395577938191	55.20330591309526	0.9634794461691669	0	0	0	-3.314486552466437	-1.984934962066834	2.639787818771789	15.63388836241908	-1.42614777679502	2.58088327959674	47.03183416768382	128.4615060735539	0	0	49.15087698674015	-7.426506618868226	10.1970908972724	42.33531783719164	97.32234051913872	0	0
